#!OML:ASF H:\Terrain\Patient Classification 1\Walking\liu\liu.ASF
:FULLY-SPECIFIED
:DEGREES
80
root 8.81876 15.7145 -14.7061 7.12606 3.46017 6.69591
lowerback -4.00057 -4.26762 -8.55191
upperback -0.0362967 -5.31334 0.935961
thorax 3.07443 -2.78229 5.36748
lowerneck -21.9926 -2.32184 -11.9335
upperneck 19.8046 -2.2248 12.1356
head 10.2221 -0.49684 6.04965
rclavicle 4.37326e-015 6.36111e-015
rhumerus -57.2378 10.2244 -84.2077
rradius 30.2437
rwrist -16.8982
rhand -29.867 -14.4287
rfingers 7.12502
rthumb -3.189 -44.3846
lclavicle 4.37326e-015 6.36111e-015
lhumerus -8.85697 -21.803 82.1008
lradius 39.5666
lwrist 11.697
lhand -18.0939 -28.9906
lfingers 7.12502
lthumb 8.17974 0.831116
rfemur -47.0298 3.51979 11.4167
rtibia 33.8935
rfoot -10.5506 -4.63871
rtoes -23.4634
lfemur 24.0296 2.83025 -26.7898
ltibia -4.45278e-014
lfoot -10.61 -1.62718
ltoes -7.86217
81
root 8.79917 15.7118 -14.4293 7.00682 3.4829 6.54139
lowerback -3.99034 -4.19778 -8.31343
upperback -0.109002 -5.23584 0.961545
thorax 2.96072 -2.73377 5.27331
lowerneck -21.9545 -2.34789 -12.1594
upperneck 19.9022 -2.24802 12.3446
head 10.2586 -0.502754 6.16856
rclavicle 7.35503e-015 -2.14687e-014
rhumerus -57.6322 9.75348 -83.96
rradius 29.2561
rwrist -15.6934
rhand -32.4335 -16.8377
rfingers 7.12502
rthumb -5.66731 -46.7419
lclavicle 7.35503e-015 -2.14687e-014
lhumerus -9.22177 -20.8539 82.6075
lradius 39.8667
lwrist 11.5375
lhand -18.2665 -29.6023
lfingers 7.12502
lthumb 8.01317 0.225795
rfemur -47.3421 3.15548 11.9469
rtibia 35.7221
rfoot -7.9416 -4.29532
rtoes -21.9611
lfemur 24.9753 3.17941 -26.3409
ltibia 9.54166e-015
lfoot -8.8453 -1.18545
ltoes -12.367
82
root 8.77546 15.6989 -14.1546 6.93029 3.24562 6.38135
lowerback -4.16383 -4.13512 -8.12893
upperback -0.095133 -5.14481 0.959874
thorax 3.04173 -2.68904 5.16456
lowerneck -21.9343 -2.35574 -12.2784
upperneck 19.9481 -2.27675 12.5537
head 10.2796 -0.502019 6.26637
rclavicle -3.86636e-014 1.27222e-014
rhumerus -57.5628 9.19805 -83.4194
rradius 28.4673
rwrist -14.9859
rhand -34.5333 -25.7851
rfingers 7.12502
rthumb -7.69429 -55.6251
lclavicle -3.86636e-014 1.27222e-014
lhumerus -9.54131 -20.1221 82.7515
lradius 40.2642
lwrist 11.8751
lhand -18.1665 -30.5936
lfingers 7.12502
lthumb 8.10965 -0.769211
rfemur -47.5331 3.05487 12.4683
rtibia 37.5651
rfoot -6.43658 -3.62835
rtoes -21.2321
lfemur 25.9235 3.76859 -25.903
ltibia 0
lfoot -6.78042 -0.715096
ltoes -16.3954
83
root 8.75022 15.6725 -13.8869 6.84955 2.91692 6.2589
lowerback -4.25175 -4.07213 -8.09432
upperback -0.112204 -5.05743 1.03243
thorax 3.06357 -2.64607 5.22417
lowerneck -22.1151 -2.34265 -12.2079
upperneck 20.2228 -2.22997 12.3478
head 10.4014 -0.496847 6.1988
rclavicle -2.0773e-014 1.74931e-014
rhumerus -57.2703 8.54336 -82.3559
rradius 28.0471
rwrist -15.0942
rhand -33.8712 -34.0356
rfingers 7.12502
rthumb -7.05521 -63.898
lclavicle -2.0773e-014 1.74931e-014
lhumerus -9.97985 -19.545 83.0477
lradius 40.615
lwrist 12.4326
lhand -18.1734 -31.0018
lfingers 7.12502
lthumb 8.10297 -1.17714
rfemur -47.6318 2.88823 13.0924
rtibia 39.4513
rfoot -5.66497 -2.6368
rtoes -21.668
lfemur 26.8972 4.42964 -25.4819
ltibia -1.04958e-013
lfoot -4.43859 -0.246151
ltoes -19.0142
84
root 8.72972 15.6521 -13.625 6.78284 2.59737 6.09768
lowerback -4.27454 -4.02516 -7.9652
upperback -0.124189 -5.00025 1.05295
thorax 3.04562 -2.61488 5.17821
lowerneck -22.3379 -2.21292 -11.6661
upperneck 20.4158 -2.09358 11.8379
head 10.4804 -0.447107 5.94384
rclavicle 3.29983e-014 3.02153e-014
rhumerus -56.9697 7.82141 -81.4352
rradius 27.5886
rwrist -14.456
rhand -33.2314 -31.5161
rfingers 7.12502
rthumb -6.43758 -61.3982
lclavicle 3.29983e-014 3.02153e-014
lhumerus -10.5893 -18.2814 83.3698
lradius 40.8911
lwrist 12.1034
lhand -18.3838 -30.8941
lfingers 7.12502
lthumb 7.89996 -1.06172
rfemur -47.7462 2.64926 13.8272
rtibia 41.3423
rfoot -5.40716 -1.62992
rtoes -22.2204
lfemur 27.7521 5.08694 -25.0339
ltibia -3.81667e-014
lfoot -1.28291 0.625247
ltoes -20.6447
